<svg width="29" height="26" viewBox="0 0 29 26" fill="none" xmlns="http://www.w3.org/2000/svg">
<path d="M4.1 15H1.62V0.38H4.1L8.82 12.02L13.54 0.38H16.06V15H13.58V10.5C13.58 7.56 13.58 6.7 13.72 5.66L10 15H7.64L3.94 5.68C4.08 6.56 4.1 7.94 4.1 9.76V15ZM17.8158 0.38H28.3158V2.74L23.0158 15H20.3558L25.7558 2.74H17.8158V0.38Z" fill="white"/>
<rect y="17" width="29" height="9" rx="1.64103" fill="#8C7CD6"/>
<path d="M3.74704 24H2.81604L4.66404 18.883H5.58104L7.42904 24H6.48404L6.07104 22.817H4.16004L3.74704 24ZM5.00704 20.409L4.42604 22.061H5.81204L5.22404 20.409C5.18204 20.276 5.13304 20.122 5.11904 20.017C5.09804 20.115 5.05604 20.269 5.00704 20.409ZM9.10669 18.883V23.174H11.2487V24H8.21069V18.883H9.10669ZM14.1403 22.236H13.0133V24H12.1173V18.883H14.1403C15.1693 18.883 15.8343 19.555 15.8343 20.556C15.8343 21.543 15.1623 22.236 14.1403 22.236ZM13.9653 19.681H13.0133V21.438H13.9513C14.5673 21.438 14.8963 21.109 14.8963 20.549C14.8963 19.989 14.5603 19.681 13.9653 19.681ZM17.624 24H16.728V18.883H17.624V20.997H19.892V18.883H20.788V24H19.892V21.83H17.624V24ZM22.5043 24H21.5733L23.4213 18.883H24.3383L26.1863 24H25.2413L24.8283 22.817H22.9173L22.5043 24ZM23.7643 20.409L23.1833 22.061H24.5693L23.9813 20.409C23.9393 20.276 23.8903 20.122 23.8763 20.017C23.8553 20.115 23.8133 20.269 23.7643 20.409Z" fill="white"/>
</svg>
