<svg width="16" height="16" viewBox="0 0 16 16" fill="none" xmlns="http://www.w3.org/2000/svg">
<circle cx="8" cy="8" r="8" fill="black"/>
<circle cx="8" cy="8" r="8" fill="white" fill-opacity="0.04"/>
<path d="M4.95947 9.89527C5.0149 9.83983 5.09113 9.8075 5.17198 9.8075H12.5036C12.6376 9.8075 12.7046 9.96919 12.6099 10.0639L11.1616 11.5122C11.1061 11.5676 11.0299 11.6 10.9491 11.6H3.61741C3.48343 11.6 3.41644 11.4383 3.51115 11.3436L4.95947 9.89527Z" fill="url(#paint0_linear_3104_194685)"/>
<path d="M4.95947 4.4878C5.01721 4.43236 5.09344 4.40002 5.17198 4.40002H12.5036C12.6376 4.40002 12.7046 4.56172 12.6099 4.65642L11.1616 6.10474C11.1061 6.16018 11.0299 6.19252 10.9491 6.19252H3.61741C3.48343 6.19252 3.41644 6.03082 3.51115 5.93612L4.95947 4.4878Z" fill="url(#paint1_linear_3104_194685)"/>
<path d="M11.1616 7.1742C11.1061 7.11876 11.0299 7.08643 10.9491 7.08643H3.61741C3.48343 7.08643 3.41644 7.24812 3.51115 7.34283L4.95947 8.79114C5.0149 8.84658 5.09113 8.87892 5.17198 8.87892H12.5036C12.6376 8.87892 12.7046 8.71722 12.6099 8.62252L11.1616 7.1742Z" fill="url(#paint2_linear_3104_194685)"/>
<defs>
<linearGradient id="paint0_linear_3104_194685" x1="-13.104" y1="3.03982" x2="-13.2991" y2="12.8557" gradientUnits="userSpaceOnUse">
<stop stop-color="#00FFA3"/>
<stop offset="1" stop-color="#DC1FFF"/>
</linearGradient>
<linearGradient id="paint1_linear_3104_194685" x1="-15.3227" y1="1.88152" x2="-15.5178" y2="11.6974" gradientUnits="userSpaceOnUse">
<stop stop-color="#00FFA3"/>
<stop offset="1" stop-color="#DC1FFF"/>
</linearGradient>
<linearGradient id="paint2_linear_3104_194685" x1="-14.2204" y1="2.45697" x2="-14.4155" y2="12.2729" gradientUnits="userSpaceOnUse">
<stop stop-color="#00FFA3"/>
<stop offset="1" stop-color="#DC1FFF"/>
</linearGradient>
</defs>
</svg>
